# xmcd
#
# Track frame offsets: 
#        150
#        19231
#        46633
#        62068
#        75039
#        96554
#        114878
#        131647
#        149143
#        168915
#        185061
#        200271
#        219113
#        233874
#
# Disc length: 3326 seconds
#
# Revision: 1
# Processed by: cddbd v1.5.2PL0 Copyright (c) Steve Scherf et al.
# Submitted via: ExactAudioCopy v1.0b3
#
DISCID=ba0cfc0e
DTITLE=Lars Danielsson And Leszek Mozdzer - Pasodoble
DYEAR=2007
DGENRE=Jazz
TTITLE0=Praying
TTITLE1=Fellow
TTITLE2=Entrance
TTITLE3=Prado
TTITLE4=Pasodoble
TTITLE5=Daughter's Joy
TTITLE6=It's Easy With You
TTITLE7=Hydrospeed
TTITLE8=Reminder
TTITLE9=Innocence 91
TTITLE10=Follow My Backlights
TTITLE11=Eja Mitt Hjarta
TTITLE12=Berlin
TTITLE13=Distances
EXTD=
EXTT0=
EXTT1=
EXTT2=
EXTT3=
EXTT4=
EXTT5=
EXTT6=
EXTT7=
EXTT8=
EXTT9=
EXTT10=
EXTT11=
EXTT12=
EXTT13=
PLAYORDER=
